# xmcd CD database file
#
# Track frame offsets:
#	150
#	29733
#	48013
#	71246
#	100219
#	150111
#	173063
#	224588
#
# Disc length: 3444 seconds
#
# Revision: 0
# Processed by: cddbd v1.5.1PL0 Copyright (c) Steve Scherf et al.
# Submitted via: CDex 1.51
#
DISCID=680d7208
DTITLE=Trio! (Bela Fleck, Stanley Clarke, Jean-Luc Ponty) - At Frederick Meijer Gardens [CD2]
DYEAR=2005
DGENRE=Jazz
TTITLE0=Bela Solo #1
TTITLE1=Bela Solo #2
TTITLE2=No Regrets
TTITLE3=Hunter's Moon
TTITLE4=Stanley solo (Touch)
TTITLE5=Plucky Davenport
TTITLE6=Jouets/Toys
TTITLE7=Translove Express
EXTD=YEAR: 2005
EXTT0=
EXTT1=
EXTT2=
EXTT3=
EXTT4=
EXTT5=
EXTT6=
EXTT7=
PLAYORDER=
